<?xml version="1.0" encoding="UTF-8" standalone="no"?>
<!DOCTYPE svg PUBLIC "-//W3C//DTD SVG 1.1//EN" "http://www.w3.org/Graphics/SVG/1.1/DTD/svg11.dtd">
<svg width="100%" height="100%" viewBox="0 0 1024 332" version="1.1" xmlns="http://www.w3.org/2000/svg" xmlns:xlink="http://www.w3.org/1999/xlink" xml:space="preserve" xmlns:serif="http://www.serif.com/" style="fill-rule:evenodd;clip-rule:evenodd;stroke-linejoin:round;stroke-miterlimit:2;">
    <g transform="matrix(24.4855,0,0,24.4855,-4685.4,-4678.21)">
        <path d="M198.602,200.125C198.602,200.797 198.436,201.285 198.104,201.589C197.772,201.893 197.258,202.045 196.562,202.045L194.21,202.045L194.21,193.645L195.23,193.645L195.23,196.285C195.47,196.125 195.77,196.045 196.13,196.045L196.562,196.045C197.266,196.045 197.782,196.195 198.11,196.495C198.438,196.795 198.602,197.285 198.602,197.965L198.602,200.125ZM196.01,196.945C195.746,196.945 195.55,197.015 195.422,197.155C195.294,197.295 195.23,197.445 195.23,197.605L195.23,201.145L196.682,201.145C196.978,201.145 197.202,201.077 197.354,200.941C197.506,200.805 197.582,200.613 197.582,200.365L197.582,197.725C197.582,197.477 197.506,197.285 197.354,197.149C197.202,197.013 196.978,196.945 196.682,196.945L196.01,196.945Z" style="fill:white;fill-rule:nonzero;"/>
        <path d="M203.45,202.045C203.346,202.045 203.232,202.013 203.108,201.949C202.984,201.885 202.878,201.797 202.79,201.685C202.606,201.925 202.362,202.045 202.058,202.045L200.99,202.045C200.382,202.045 199.94,201.923 199.664,201.679C199.388,201.435 199.25,201.017 199.25,200.425L199.25,200.185C199.25,198.945 199.834,198.325 201.002,198.325L202.49,198.325L202.49,197.725C202.49,197.477 202.414,197.285 202.262,197.149C202.11,197.013 201.886,196.945 201.59,196.945L199.73,196.945L199.73,196.045L201.47,196.045C202.166,196.045 202.68,196.197 203.012,196.501C203.344,196.805 203.51,197.293 203.51,197.965L203.51,200.845C203.51,200.965 203.556,201.055 203.648,201.115C203.74,201.175 203.894,201.205 204.11,201.205L204.11,202.045L203.45,202.045ZM201.938,201.145C202.178,201.145 202.33,201.089 202.394,200.977C202.458,200.865 202.49,200.721 202.49,200.545L202.49,199.225L200.99,199.225C200.782,199.225 200.61,199.293 200.474,199.429C200.338,199.565 200.27,199.737 200.27,199.945L200.27,200.545C200.27,200.753 200.318,200.905 200.414,201.001C200.51,201.097 200.662,201.145 200.87,201.145L201.938,201.145Z" style="fill:white;fill-rule:nonzero;"/>
        <path d="M208.79,200.545C208.79,201.049 208.636,201.425 208.328,201.673C208.02,201.921 207.574,202.045 206.99,202.045L205.202,202.045L205.202,201.145L207.11,201.145C207.326,201.145 207.49,201.099 207.602,201.007C207.714,200.915 207.77,200.781 207.77,200.605L207.77,199.969C207.77,199.609 207.598,199.429 207.254,199.429L206.81,199.429C206.25,199.429 205.832,199.307 205.556,199.063C205.28,198.819 205.142,198.433 205.142,197.905L205.142,197.557C205.142,197.021 205.294,196.635 205.598,196.399C205.902,196.163 206.35,196.045 206.942,196.045L208.55,196.045L208.55,196.945L206.822,196.945C206.622,196.945 206.462,196.991 206.342,197.083C206.222,197.175 206.162,197.309 206.162,197.485L206.162,197.917C206.162,198.101 206.216,198.237 206.324,198.325C206.432,198.413 206.57,198.457 206.738,198.457L207.146,198.457C207.682,198.457 208.09,198.587 208.37,198.847C208.65,199.107 208.79,199.493 208.79,200.005L208.79,200.545Z" style="fill:white;fill-rule:nonzero;"/>
        <path d="M212.81,193.645L212.81,194.725L211.67,194.725L211.67,193.645L212.81,193.645ZM209.966,196.945L209.966,196.045L212.75,196.045L212.75,201.145L214.526,201.145L214.526,202.045L211.73,202.045L211.73,196.945L209.966,196.945Z" style="fill:white;fill-rule:nonzero;"/>
        <path d="M217.766,202.045C217.062,202.045 216.546,201.895 216.218,201.595C215.89,201.295 215.726,200.805 215.726,200.125L215.726,197.965C215.726,197.293 215.892,196.805 216.224,196.501C216.556,196.197 217.07,196.045 217.766,196.045L219.314,196.045L219.314,196.945L217.646,196.945C217.35,196.945 217.126,197.013 216.974,197.149C216.822,197.285 216.746,197.477 216.746,197.725L216.746,200.365C216.746,200.613 216.822,200.805 216.974,200.941C217.126,201.077 217.35,201.145 217.646,201.145L219.314,201.145L219.314,202.045L217.766,202.045Z" style="fill:rgb(102,170,204);fill-rule:nonzero;"/>
        <path d="M223.046,202.045C222.342,202.045 221.826,201.895 221.498,201.595C221.17,201.295 221.006,200.805 221.006,200.125L221.006,197.965C221.006,197.293 221.172,196.805 221.504,196.501C221.836,196.197 222.35,196.045 223.046,196.045L224.594,196.045L224.594,196.945L222.926,196.945C222.63,196.945 222.406,197.013 222.254,197.149C222.102,197.285 222.026,197.477 222.026,197.725L222.026,200.365C222.026,200.613 222.102,200.805 222.254,200.941C222.406,201.077 222.63,201.145 222.926,201.145L224.594,201.145L224.594,202.045L223.046,202.045Z" style="fill:rgb(102,170,204);fill-rule:nonzero;"/>
        <path d="M230.318,200.125C230.318,200.797 230.152,201.285 229.82,201.589C229.488,201.893 228.974,202.045 228.278,202.045L227.882,202.045C227.186,202.045 226.672,201.893 226.34,201.589C226.008,201.285 225.842,200.797 225.842,200.125L225.842,197.965C225.842,197.293 226.008,196.805 226.34,196.501C226.672,196.197 227.186,196.045 227.882,196.045L228.278,196.045C228.974,196.045 229.488,196.197 229.82,196.501C230.152,196.805 230.318,197.293 230.318,197.965L230.318,200.125ZM229.298,197.725C229.298,197.477 229.222,197.285 229.07,197.149C228.918,197.013 228.694,196.945 228.398,196.945L227.762,196.945C227.466,196.945 227.242,197.013 227.09,197.149C226.938,197.285 226.862,197.477 226.862,197.725L226.862,200.365C226.862,200.613 226.938,200.805 227.09,200.941C227.242,201.077 227.466,201.145 227.762,201.145L228.398,201.145C228.694,201.145 228.918,201.077 229.07,200.941C229.222,200.805 229.298,200.613 229.298,200.365L229.298,197.725Z" style="fill:white;fill-rule:nonzero;"/>
    </g>
    <g transform="matrix(1,0,0,1.00075,0,-34.0255)">
        <path d="M1024,100.474C1024,63.854 994.247,34.124 957.6,34.124L66.4,34.124C29.753,34.124 0,63.854 0,100.474L0,365.876L957.6,365.876C994.247,365.876 1024,336.146 1024,299.526L1024,100.474ZM1006,100.474L1006,299.526C1006,326.218 984.313,347.89 957.6,347.89L18,347.89C18,347.89 18,100.474 18,100.474C18,73.782 39.687,52.11 66.4,52.11L957.6,52.11C984.313,52.11 1006,73.782 1006,100.474Z" style="fill:rgb(102,170,204);"/>
    </g>
</svg>
